<svg width="214" height="91" viewBox="0 0 214 91" fill="none" xmlns="http://www.w3.org/2000/svg">
<path d="M68.8807 70.7427C67.727 70.7427 66.6598 70.4927 65.6792 69.9928C64.6985 69.4929 63.9005 68.7814 63.2852 67.8584L64.5543 66.4163C65.6696 68.0699 67.1213 68.8968 68.9096 68.8968C71.4093 68.8968 72.6591 67.4162 72.6591 64.455V52.2256H65.2754V50.3797H74.7646V64.3685C74.7646 66.4836 74.2647 68.0796 73.2648 69.1564C72.2842 70.2139 70.8228 70.7427 68.8807 70.7427ZM93.4066 65.1761H82.1579L79.7351 70.5697H77.5142L86.7439 50.3797H88.8494L98.0791 70.5697H95.8294L93.4066 65.1761ZM92.6278 63.4455L87.7822 52.6006L82.9366 63.4455H92.6278ZM107.678 61.0804L103.553 65.2626V70.5697H101.419V50.3797H103.553V62.5802L115.408 50.3797H117.859L109.12 59.5229L118.465 70.5697H115.927L107.678 61.0804ZM129.776 70.7427C127.161 70.7427 125.123 69.9928 123.662 68.493C122.2 66.9931 121.47 64.8107 121.47 61.9457V50.3797H123.604V61.8591C123.604 64.205 124.133 65.9548 125.19 67.1085C126.248 68.2622 127.777 68.8391 129.776 68.8391C131.795 68.8391 133.334 68.2622 134.391 67.1085C135.449 65.9548 135.978 64.205 135.978 61.8591V50.3797H138.054V61.9457C138.054 64.8107 137.324 66.9931 135.862 68.493C134.42 69.9928 132.392 70.7427 129.776 70.7427ZM157.206 60.1574C158.532 60.4458 159.552 61.0227 160.263 61.888C160.994 62.734 161.359 63.8301 161.359 65.1761C161.359 66.9066 160.715 68.243 159.427 69.1852C158.158 70.1082 156.273 70.5697 153.773 70.5697H144.486V50.3797H153.197C155.446 50.3797 157.186 50.8316 158.417 51.7353C159.667 52.639 160.292 53.9177 160.292 55.5714C160.292 56.6867 160.013 57.6385 159.455 58.4268C158.917 59.196 158.167 59.7728 157.206 60.1574ZM146.62 52.1391V59.4652H153.052C154.687 59.4652 155.946 59.1575 156.831 58.5422C157.715 57.9077 158.158 56.9943 158.158 55.8021C158.158 54.61 157.715 53.7062 156.831 53.0909C155.946 52.4564 154.687 52.1391 153.052 52.1391H146.62ZM153.745 68.8102C155.552 68.8102 156.917 68.5026 157.84 67.8873C158.763 67.272 159.225 66.3105 159.225 65.003C159.225 62.4841 157.398 61.2246 153.745 61.2246H146.62V68.8102H153.745ZM166.231 50.3797H168.365V70.5697H166.231V50.3797ZM187.596 65.1761H176.348L173.925 70.5697H171.704L180.934 50.3797H183.039L192.269 70.5697H190.019L187.596 65.1761ZM186.818 63.4455L181.972 52.6006L177.126 63.4455H186.818ZM201.868 61.0804L197.743 65.2626V70.5697H195.609V50.3797H197.743V62.5802L209.598 50.3797H212.049L203.31 59.5229L212.655 70.5697H210.117L201.868 61.0804Z" fill="#2A78A4"/>
<path d="M72.0102 33.1477L67.5911 37.6286V43.3148H65.3043V21.6827H67.5911V34.7547L80.2922 21.6827H82.919L73.5554 31.4789L83.5679 43.3148H80.8485L72.0102 33.1477ZM89.8465 30.2428C90.3616 29.1509 91.1239 28.3268 92.1334 27.7706C93.1635 27.2143 94.4305 26.9362 95.9344 26.9362V29.0685L95.4091 29.0376C93.6991 29.0376 92.36 29.563 91.3917 30.6137C90.4234 31.6644 89.9393 33.1374 89.9393 35.0328V43.3148H87.7451V27.0598H89.8465V30.2428ZM112.85 41.4915V43.3148H99.6232V41.8623L109.852 28.914H99.8087V27.0598H112.664V28.5123L102.435 41.4915H112.85ZM131.762 27.0598L123.634 45.2617C122.975 46.7862 122.213 47.8678 121.347 48.5065C120.482 49.1452 119.442 49.4645 118.226 49.4645C117.443 49.4645 116.712 49.3409 116.032 49.0936C115.352 48.8464 114.765 48.4756 114.271 47.9811L115.29 46.3433C116.114 47.1674 117.103 47.5794 118.257 47.5794C118.999 47.5794 119.627 47.3734 120.142 46.9613C120.678 46.5493 121.172 45.8488 121.625 44.8599L122.336 43.2839L115.074 27.0598H117.361L123.48 40.8735L129.598 27.0598H131.762ZM140.264 43.4693C138.946 43.4693 137.679 43.2839 136.463 42.913C135.268 42.5216 134.331 42.0375 133.651 41.4606L134.64 39.73C135.32 40.2657 136.175 40.7086 137.205 41.0589C138.235 41.3885 139.306 41.5533 140.419 41.5533C141.902 41.5533 142.994 41.3267 143.694 40.8735C144.415 40.3996 144.776 39.7403 144.776 38.8957C144.776 38.2982 144.58 37.8347 144.189 37.505C143.797 37.1548 143.303 36.8973 142.705 36.7324C142.108 36.547 141.315 36.3719 140.326 36.2071C139.007 35.9599 137.946 35.7127 137.143 35.4654C136.339 35.1976 135.649 34.7547 135.072 34.1366C134.516 33.5185 134.238 32.6636 134.238 31.5716C134.238 30.2119 134.805 29.0994 135.938 28.2341C137.071 27.3688 138.647 26.9362 140.666 26.9362C141.717 26.9362 142.767 27.0804 143.818 27.3688C144.869 27.6367 145.734 27.9972 146.414 28.4504L145.456 30.2119C144.117 29.2848 142.52 28.8213 140.666 28.8213C139.265 28.8213 138.204 29.0685 137.483 29.563C136.782 30.0574 136.432 30.7064 136.432 31.5098C136.432 32.1279 136.628 32.6224 137.019 32.9932C137.431 33.364 137.936 33.6422 138.533 33.8276C139.131 33.9924 139.955 34.1675 141.006 34.3529C142.304 34.6001 143.344 34.8474 144.127 35.0946C144.91 35.3418 145.579 35.7642 146.136 36.3616C146.692 36.9591 146.97 37.7832 146.97 38.8339C146.97 40.2554 146.373 41.3885 145.178 42.2332C144.003 43.0573 142.365 43.4693 140.264 43.4693ZM163.727 41.4915V43.3148H150.501V41.8623L160.73 28.914H150.686V27.0598H163.542V28.5123L153.313 41.4915H163.727ZM177.872 42.3259C177.46 42.6967 176.945 42.9852 176.327 43.1912C175.73 43.3766 175.101 43.4693 174.442 43.4693C172.918 43.4693 171.743 43.0573 170.919 42.2332C170.095 41.4091 169.683 40.2451 169.683 38.7411V28.914H166.778V27.0598H169.683V23.506H171.877V27.0598H176.822V28.914H171.877V38.6175C171.877 39.5858 172.114 40.3275 172.588 40.8425C173.082 41.337 173.783 41.5842 174.689 41.5842C175.143 41.5842 175.575 41.5121 175.987 41.3679C176.42 41.2237 176.791 41.0177 177.1 40.7498L177.872 42.3259ZM189.173 43.4693C187.608 43.4693 186.196 43.1191 184.94 42.4186C183.683 41.6975 182.694 40.7086 181.973 39.4519C181.252 38.1952 180.891 36.7737 180.891 35.1873C180.891 33.6009 181.252 32.1794 181.973 30.9227C182.694 29.666 183.683 28.6874 184.94 27.9869C186.196 27.2864 187.608 26.9362 189.173 26.9362C190.739 26.9362 192.15 27.2864 193.407 27.9869C194.664 28.6874 195.642 29.666 196.343 30.9227C197.064 32.1794 197.424 33.6009 197.424 35.1873C197.424 36.7737 197.064 38.1952 196.343 39.4519C195.642 40.7086 194.664 41.6975 193.407 42.4186C192.15 43.1191 190.739 43.4693 189.173 43.4693ZM189.173 41.5224C190.327 41.5224 191.357 41.2649 192.264 40.7498C193.191 40.2142 193.912 39.4622 194.427 38.4939C194.942 37.5256 195.199 36.4234 195.199 35.1873C195.199 33.9512 194.942 32.849 194.427 31.8807C193.912 30.9124 193.191 30.1707 192.264 29.6557C191.357 29.12 190.327 28.8522 189.173 28.8522C188.02 28.8522 186.979 29.12 186.052 29.6557C185.146 30.1707 184.425 30.9124 183.889 31.8807C183.374 32.849 183.116 33.9512 183.116 35.1873C183.116 36.4234 183.374 37.5256 183.889 38.4939C184.425 39.4622 185.146 40.2142 186.052 40.7498C186.979 41.2649 188.02 41.5224 189.173 41.5224ZM208.517 22.0844C207.57 22.0844 206.848 22.342 206.354 22.857C205.88 23.3721 205.643 24.1343 205.643 25.1438V27.0598H210.649V28.914H205.705V43.3148H203.511V28.914H200.606V27.0598H203.511V25.0511C203.511 23.5678 203.933 22.3935 204.778 21.5282C205.643 20.6629 206.859 20.2302 208.424 20.2302C209.043 20.2302 209.64 20.323 210.217 20.5084C210.794 20.6732 211.278 20.9204 211.669 21.25L210.928 22.8879C210.289 22.3523 209.485 22.0844 208.517 22.0844Z" fill="black"/>
<path d="M76.1551 73.0855C70.5009 79.8446 62.8973 84.6925 54.3837 86.9667C45.87 89.2408 36.8618 88.8302 28.5903 85.791C20.3188 82.7518 13.1878 77.2322 8.17192 69.9869C3.15607 62.7415 0.500183 54.1239 0.567308 45.312C0.634433 36.5001 3.42129 27.9239 8.54694 20.7558C13.6726 13.5877 20.8869 8.17739 29.2037 5.26453C37.5205 2.35167 46.534 2.07835 55.012 4.48195C63.49 6.88554 71.0189 11.8487 76.5695 18.6931" stroke="black" stroke-width="1.13212" stroke-linecap="round"/>
<path d="M67.9994 73.0656C62.6924 77.866 56.1032 81.0185 49.0354 82.1387C41.9676 83.2589 34.7266 82.2984 28.1952 79.3743C21.6639 76.4502 16.1245 71.6888 12.2525 65.6708C8.38056 59.6528 6.34329 52.6382 6.38914 45.4823C6.435 38.3264 8.562 31.3385 12.5108 25.3706C16.4596 19.4027 22.0595 14.7128 28.6278 11.8726C35.1961 9.03242 42.4488 8.16478 49.5017 9.37545C56.5545 10.5861 63.1028 13.8228 68.3478 18.6908" stroke="black" stroke-width="1.13212" stroke-linecap="round"/>
<path d="M42.3892 12.2427L40.0094 9.04223L40.5838 6.74445H42.8816L44.8511 8.54985L46.1641 6.74445L53.1395 10.6835V12.2427L50.5956 18.0692H47.3951L41.6506 15.1149L42.3892 12.2427Z" fill="white" stroke="black" stroke-width="0.161731"/>
<path fill-rule="evenodd" clip-rule="evenodd" d="M37.2387 48.6024C37.3858 48.3049 37.3156 47.6413 37.2028 46.9051C37.2028 46.9051 39.2119 46.9994 40.1703 46.9051C40.5545 46.8673 40.9246 46.8499 41.3048 46.8319L41.3052 46.8319C41.8734 46.8051 42.4642 46.7772 43.1583 46.6788C44.1018 46.5452 44.8197 46.3745 45.5683 46.1965C45.6847 46.1689 45.8019 46.141 45.9207 46.1131C46.5113 45.9744 46.9746 45.7326 47.4985 45.4592L47.4988 45.4591L47.4991 45.4589C47.7585 45.3235 48.0329 45.1804 48.3449 45.0382C49.1534 44.6697 50.4067 44.0764 50.4067 44.0764C50.4784 44.4051 50.5594 44.7544 50.6563 45.1513C50.8799 46.0665 51.0826 46.7174 51.3054 47.433C51.4364 47.8536 51.5743 48.2966 51.7275 48.8287C51.8432 49.2305 51.9455 49.5809 52.0415 49.9098L52.0418 49.9107C52.2781 50.7199 52.4765 51.3991 52.7423 52.3929C52.8069 52.6345 52.8668 52.8589 52.9234 53.0718L51.1074 54.0902L49.4552 54.9745C49.4291 54.9884 49.4027 55.0008 49.3752 55.0117C49.1313 55.1089 47.8612 55.6118 47.3865 55.7309C46.8603 55.8629 45.6388 56.1269 45.6388 56.1269H43.1583H40.74L40.7181 56.089C40.605 55.8935 40.4855 55.6871 40.3958 55.448C40.2653 55.1002 40.2057 54.7304 40.1488 54.3777C40.0272 53.6234 39.9182 52.9474 39.1555 52.7324C38.5984 52.5753 38.0969 52.7365 37.5656 52.9073L37.5655 52.9073C37.3859 52.9651 37.2029 53.0239 37.0132 53.0718C36.3763 53.2329 36.1257 53.3555 35.6038 53.6376C35.3378 53.7814 35.1503 53.9591 34.9701 54.1298C34.7459 54.3422 34.533 54.5439 34.1944 54.656C33.6299 54.8427 33.2394 54.8346 32.6723 54.656C32.0421 54.4574 31.7252 54.1604 31.3192 53.6376C30.8567 53.042 30.6493 52.5822 30.6427 51.8272C30.6391 51.4145 30.7174 51.1689 30.8349 50.8006L30.835 50.8001C30.8458 50.7664 30.8568 50.7317 30.8682 50.6957C30.8937 50.6149 30.9172 50.5376 30.9398 50.4632L30.9399 50.4629C31.0885 49.9732 31.199 49.6093 31.6011 49.2247C32.2316 48.6218 32.8785 48.4991 33.7434 48.6024C34.0497 48.639 34.2608 48.7767 34.4712 48.9139C34.6848 49.0533 34.8978 49.1922 35.2092 49.2247C36.0335 49.3108 36.8706 49.3475 37.2387 48.6024ZM54.6745 63.1422L52.4176 64.3794C52.4086 64.3844 52.3997 64.3895 52.3907 64.3948C52.262 64.4712 51.2245 65.0819 50.4872 65.3487C49.6184 65.663 49.0923 65.7341 48.1774 65.8576L48.1758 65.8579C47.2184 65.9871 45.7306 65.9728 45.5928 65.9711C45.5852 65.971 45.5787 65.9708 45.5711 65.9705L42.9138 65.8579C42.9138 65.8579 43.1098 67.6112 42.7073 68.0077C42.2571 68.4512 41.911 68.6508 41.2978 68.7998C40.7275 68.9383 40.2919 68.6791 39.8531 68.418C39.4371 68.1705 39.0182 67.9213 38.479 68.0077C37.7593 68.123 37.2944 68.2739 36.7877 68.7998C36.2733 69.3337 36.1176 69.8136 36.0548 70.5536C35.9874 71.3492 36.1539 71.8485 36.5622 72.5337C36.9138 73.1237 37.1641 73.5293 37.8025 73.7784C38.3771 74.0026 38.7823 73.9256 39.381 73.7784C39.7356 73.6912 39.9645 73.5301 40.2035 73.3619C40.3902 73.2305 40.583 73.0947 40.8468 72.9864C41.0293 72.9114 41.2704 72.7221 41.5079 72.5357C42.0174 72.1357 42.51 71.7491 42.369 72.5337C42.3622 72.5715 42.3555 72.6092 42.349 72.6469C42.259 73.1623 42.1881 73.6695 42.1134 74.2035C42.0273 74.819 41.9362 75.4703 41.8052 76.2111C41.6998 76.8074 41.5678 77.2869 41.4417 77.7452C41.2438 78.464 41.0603 79.1308 41.016 80.1148C40.9555 81.4587 41.0663 82.3192 41.2371 83.6455L41.2415 83.6791C41.2807 83.9836 41.3063 84.2469 41.3304 84.4947C41.3816 85.0212 41.4261 85.4781 41.5797 86.1118C41.6548 86.4215 41.7003 86.7192 41.7437 87.003C41.868 87.8152 41.9748 88.5136 42.7073 89.0537C43.2515 89.455 43.6693 89.6779 44.3422 89.6195C45.0908 89.5544 45.4889 89.1744 45.9771 88.6011C46.3487 88.1648 46.3954 87.718 46.4448 87.2463C46.4826 86.8849 46.5219 86.5089 46.71 86.1118C47.211 85.054 47.6721 84.5452 48.4577 83.6791C48.9302 83.158 49.3518 82.8346 49.7911 82.4976C50.1332 82.2351 50.486 81.9644 50.8818 81.5858C51.0544 81.4207 51.2122 81.2759 51.3604 81.1398C51.822 80.7159 52.1913 80.3768 52.6295 79.7754C53.2051 78.9854 53.4965 78.4945 53.8134 77.5689C54.0593 76.8511 54.0823 76.2932 54.1074 75.6844C54.1228 75.3108 54.1391 74.918 54.2081 74.4573C54.2522 74.1626 54.3004 73.9058 54.3488 73.6652C54.3602 73.6084 54.3716 73.5525 54.383 73.4973C54.3926 73.4508 54.4022 73.4049 54.4117 73.3592C54.5122 72.8753 54.6064 72.4218 54.6591 71.7983C54.717 71.1129 54.6998 70.6203 54.6805 70.0694C54.6701 69.771 54.6591 69.4553 54.6591 69.0826V66.0842C54.6591 65.6185 54.6659 65.2246 54.6724 64.8521L54.6724 64.8518V64.8515C54.6821 64.2906 54.691 63.7781 54.6745 63.1422Z" fill="#2A78A4"/>
<path d="M54.0389 4.19084C53.4522 2.8797 52.7367 2.21058 51.4456 1.58838C49.7587 0.775403 47.8939 0.909471 47.0482 1.36207C46.504 1.65338 46.164 2.2642 45.9207 2.83303C45.5929 3.59943 45.7151 4.35318 45.824 5.025C45.8737 5.33201 45.9207 5.62192 45.9207 5.8881C45.9207 6.17027 45.9072 6.48652 45.8579 6.7933L48.1758 7.86823L50.4308 9.16946L53.5829 10.9799C53.8023 10.1511 53.924 9.45873 54.0389 8.43398C54.0843 8.02981 54.1481 7.65949 54.2086 7.30839C54.3946 6.22905 54.5494 5.33143 54.0389 4.19084Z" fill="#2A78A4"/>
<path d="M36.1676 14.3178C35.3363 14.4562 34.8292 14.8011 34.3635 15.5059C33.9565 16.122 33.9862 16.8005 34.0128 17.4062C34.0191 17.5507 34.0253 17.6911 34.0253 17.8255C34.0253 18.5196 34.5865 18.9415 35.1994 19.4022L35.2092 19.4096C35.6744 19.7593 35.8683 19.7973 36.4495 19.8056C36.7017 19.8092 36.9075 19.7309 37.1093 19.6541C37.3426 19.5654 37.5707 19.4786 37.8589 19.5227C38.2996 19.5902 38.5741 19.657 38.8173 20.1451C38.977 20.4656 38.6718 21.2119 38.3487 22.0021C38.2157 22.3274 38.0796 22.6602 37.9716 22.9738C37.8168 23.4237 37.7105 23.8645 37.6205 24.275L40.0901 25.3397C40.106 25.3465 40.1215 25.3527 40.1378 25.3584C40.3064 25.4178 41.3307 25.7741 42.0307 25.9157C42.8554 26.0825 44.173 26.142 44.173 26.142H46.3717H49.2469H49.4333C49.4448 25.9278 49.4521 25.731 49.459 25.5426L49.4591 25.5423C49.4812 24.9439 49.5002 24.4301 49.6416 23.7093C49.7351 23.2326 49.8453 22.8927 49.9638 22.527C50.0415 22.2874 50.1228 22.0367 50.2053 21.7292C50.4551 20.7981 50.5877 20.0261 50.7161 19.2783L50.7162 19.2781L50.7162 19.2779C50.7639 19.0002 50.811 18.7258 50.8634 18.4478C50.8634 18.4478 48.7569 18.3832 47.4429 18.1083C46.6376 17.9399 46.1836 17.8323 45.4133 17.5426C44.529 17.2099 44.0499 16.9307 43.2607 16.4708L43.1583 16.4111C42.3638 15.9484 41.1957 15.1099 41.1957 15.1099C41.1807 15.1997 41.1688 15.2884 41.1572 15.3747C41.0925 15.8566 41.0374 16.2664 40.5086 16.4111C40.1819 16.5005 39.8451 16.1655 39.4399 15.7625C39.0761 15.4006 38.6571 14.9838 38.1408 14.7704C38.0333 14.726 37.9316 14.6821 37.8339 14.6398C37.267 14.3948 36.8327 14.2071 36.1676 14.3178Z" fill="#2A78A4"/>
<path fill-rule="evenodd" clip-rule="evenodd" d="M37.5518 24.5942L37.5519 24.5939C37.5547 24.581 37.5574 24.568 37.5602 24.5549C37.5574 24.568 37.5546 24.5812 37.5518 24.5942Z" fill="#2A78A4"/>
<path d="M35.2092 37.7965C34.6768 38.0254 34.1529 37.9812 33.7434 37.5702C33.7315 37.5583 33.7167 37.5431 33.6991 37.5251C33.4657 37.2857 32.7446 36.5464 31.9957 36.3821C31.2807 36.2253 30.8682 36.269 30.1353 36.6084C29.4024 36.9479 28.7765 37.2448 28.3313 38.0228C27.836 38.8884 27.8855 39.5954 28.1058 40.5687C28.3 41.4267 28.5304 41.9545 29.1769 42.5488C29.7214 43.0494 30.13 43.3787 30.8682 43.3975C31.3104 43.4087 31.5908 43.2012 31.8881 42.9812C32.1137 42.8142 32.3491 42.64 32.6723 42.5488C33.3558 42.356 33.7663 42.3225 34.4763 42.3225C34.6832 42.3225 34.8957 42.2876 35.1009 42.254C35.5999 42.172 36.0553 42.0973 36.2803 42.5488C36.5622 43.1146 36.8256 44.4609 37.0132 45.7171C37.0445 45.926 37.0797 46.1417 37.115 46.3574L37.115 46.3576C37.1451 46.5416 37.1752 46.7255 37.2028 46.9051C37.2028 46.9051 39.2119 46.9994 40.1703 46.9051C40.5545 46.8673 40.9246 46.8499 41.3048 46.8319L41.3052 46.8319C41.8734 46.8051 42.4642 46.7772 43.1583 46.6788C44.1018 46.5452 44.8197 46.3745 45.5683 46.1965C45.6847 46.1689 45.8019 46.141 45.9207 46.1131C46.5113 45.9744 46.9746 45.7326 47.4985 45.4592L47.4988 45.4591L47.4991 45.4589C47.7585 45.3235 48.0329 45.1804 48.3449 45.0382C49.1534 44.6697 50.4067 44.0764 50.4067 44.0764C50.2216 43.2271 50.0987 42.5151 49.9234 41.4739C49.6828 40.0444 49.5486 39.2402 49.4161 37.7965C49.3086 36.6261 49.2887 35.9071 49.2591 34.8364L49.259 34.831C49.2552 34.6943 49.2512 34.5519 49.2469 34.402C49.2418 34.2252 49.2373 34.056 49.2331 33.8928L46.3735 34.7975C46.3723 34.7979 46.372 34.798 46.3708 34.7983C46.3327 34.8106 45.1339 35.1947 44.3422 35.3638C43.4073 35.5635 42.8713 35.6328 41.918 35.7032C40.8913 35.7791 39.3084 35.7102 39.1659 35.7037C39.1582 35.7034 39.1517 35.703 39.1441 35.7024L36.1673 35.4769C36.122 35.9769 36.0777 36.3969 36.0614 36.5482C36.057 36.5885 36.0486 36.6274 36.0344 36.6653C35.9557 36.8752 35.6548 37.6049 35.2092 37.7965Z" fill="#2A78A4"/>
<path d="M35.2092 19.4096C35.6744 19.7593 35.8683 19.7973 36.4495 19.8056C36.7017 19.8092 36.9075 19.7309 37.1093 19.6541C37.3426 19.5654 37.5707 19.4786 37.8589 19.5227C38.2996 19.5902 38.5741 19.657 38.8173 20.1451C38.977 20.4656 38.6718 21.2119 38.3487 22.0021C38.2157 22.3274 38.0796 22.6602 37.9716 22.9738C37.8168 23.4237 37.7105 23.8645 37.6205 24.275M35.2092 19.4096L35.1994 19.4022M35.2092 19.4096C35.2059 19.4071 35.2027 19.4047 35.1994 19.4022M41.2415 83.6791L41.2371 83.6455M41.2415 83.6791C41.2807 83.9836 41.3063 84.2469 41.3304 84.4947C41.3816 85.0213 41.4261 85.4781 41.5797 86.1118C41.6548 86.4215 41.7003 86.7192 41.7437 87.003C41.868 87.8152 41.9748 88.5136 42.7073 89.0537C43.2515 89.455 43.6693 89.6779 44.3422 89.6195C45.0908 89.5544 45.4889 89.1744 45.9771 88.6011C46.3487 88.1648 46.3954 87.718 46.4448 87.2463C46.4826 86.8849 46.5219 86.5089 46.71 86.1118C47.211 85.054 47.6721 84.5452 48.4577 83.6791C48.9302 83.158 49.3518 82.8346 49.7911 82.4976C50.1332 82.2351 50.486 81.9644 50.8818 81.5858C51.0544 81.4207 51.2122 81.2759 51.3604 81.1398C51.822 80.7159 52.1913 80.3768 52.6295 79.7754C53.2051 78.9854 53.4965 78.4945 53.8134 77.5689C54.0593 76.8511 54.0823 76.2932 54.1074 75.6844C54.1228 75.3108 54.1391 74.918 54.2081 74.4573C54.2522 74.1626 54.3004 73.9058 54.3488 73.6652M41.2415 83.6791C41.24 83.6678 41.2386 83.6567 41.2371 83.6455M54.6591 69.0827C54.6591 67.9117 54.6591 67.2551 54.6591 66.0842M54.6591 69.0827V66.0842M54.6591 69.0827C54.6591 69.4553 54.6701 69.7709 54.6805 70.0694C54.6998 70.6203 54.717 71.1129 54.6591 71.7983C54.6064 72.4218 54.5122 72.8753 54.4117 73.3592C54.4022 73.4049 54.3926 73.4508 54.383 73.4973C54.3716 73.5525 54.3602 73.6084 54.3488 73.6652M54.6591 66.0842C54.6591 65.6185 54.6659 65.2246 54.6724 64.8521L54.6724 64.8518V64.8515C54.6821 64.2906 54.691 63.7781 54.6745 63.1422M45.8579 6.7933C45.9072 6.48652 45.9207 6.17027 45.9207 5.8881C45.9207 5.62192 45.8737 5.33201 45.824 5.025C45.7151 4.35318 45.5929 3.59943 45.9207 2.83303C46.164 2.2642 46.504 1.65338 47.0482 1.36207C47.8939 0.909471 49.7587 0.775403 51.4456 1.58838C52.7367 2.21058 53.4522 2.8797 54.0389 4.19084C54.5494 5.33143 54.3946 6.22905 54.2086 7.30839C54.1481 7.65949 54.0843 8.02981 54.0389 8.43398C53.924 9.45873 53.8023 10.1511 53.5829 10.9799M45.8579 6.7933C45.7703 7.33848 45.5698 7.85372 45.1314 8.09453C44.6158 8.37779 44.2433 7.90971 43.8367 7.39882C43.512 6.99084 43.1656 6.55556 42.7073 6.45385C42.6203 6.43456 42.5364 6.4147 42.4549 6.3954L42.4547 6.39535C41.8912 6.26194 41.4421 6.15563 40.9032 6.45385C40.2046 6.84043 40.0207 7.4673 39.9448 8.26426C39.8519 9.24045 40.293 9.81788 40.9032 10.5838C41.1207 10.8569 41.3328 11.0222 41.5276 11.174C41.8253 11.406 42.0824 11.6064 42.2562 12.1114C42.5035 12.8297 42.2302 13.2043 41.8829 13.6805C41.7062 13.9226 41.5105 14.1909 41.3542 14.5441C41.2714 14.7313 41.2269 14.9232 41.1957 15.1099M45.8579 6.7933L48.1758 7.86823L50.4308 9.16946L53.5829 10.9799M53.5829 10.9799C53.5044 11.2759 53.4136 11.5894 53.306 11.9416C53.03 12.8459 52.693 13.4956 52.3514 14.1543C52.039 14.7565 51.7228 15.3662 51.4456 16.1848C51.1582 17.0337 50.9944 17.7519 50.8634 18.4478M41.1957 15.1099C41.1957 15.1099 42.3638 15.9484 43.1583 16.4111M41.1957 15.1099C41.1807 15.1997 41.1688 15.2884 41.1572 15.3747C41.0925 15.8566 41.0374 16.2664 40.5086 16.4111C40.1819 16.5005 39.8451 16.1655 39.4399 15.7625C39.0761 15.4006 38.6571 14.9838 38.1408 14.7704C38.0333 14.726 37.9316 14.6821 37.8339 14.6398C37.267 14.3948 36.8327 14.2071 36.1676 14.3178C35.3363 14.4562 34.8292 14.8011 34.3635 15.5059C33.9565 16.122 33.9862 16.8005 34.0128 17.4062C34.0191 17.5507 34.0253 17.6911 34.0253 17.8255C34.0253 18.5196 34.5865 18.9415 35.1994 19.4022M43.1583 16.4111C43.193 16.4313 43.2272 16.4512 43.2607 16.4708M43.1583 16.4111L43.2607 16.4708M50.8634 18.4478C50.8634 18.4478 48.7569 18.3832 47.4429 18.1083C46.6376 17.9399 46.1836 17.8323 45.4133 17.5426C44.529 17.2099 44.0499 16.9307 43.2607 16.4708M50.8634 18.4478C50.811 18.7258 50.7639 19.0002 50.7162 19.2779L50.7162 19.2781L50.7161 19.2783C50.5877 20.0261 50.4551 20.7981 50.2053 21.7292C50.1228 22.0367 50.0415 22.2874 49.9638 22.527C49.8453 22.8927 49.7351 23.2326 49.6416 23.7093C49.5002 24.4301 49.4812 24.9439 49.4591 25.5423L49.459 25.5426C49.4521 25.731 49.4448 25.9278 49.4333 26.142M37.6205 24.275L40.0901 25.3397C40.106 25.3465 40.1215 25.3527 40.1378 25.3584C40.3064 25.4178 41.3307 25.7741 42.0307 25.9157C42.8554 26.0825 44.173 26.142 44.173 26.142M37.6205 24.275C37.5997 24.37 37.5797 24.4634 37.5602 24.5549M44.173 26.142C45.0317 26.142 45.5131 26.142 46.3717 26.142M44.173 26.142H46.3717M46.3717 26.142H49.2469H49.4333M36.1673 35.4769C36.2137 34.9653 36.261 34.3698 36.2803 33.8928C36.3215 32.8773 36.2803 31.743 35.9985 31.2904C35.7166 30.8378 35.3673 30.7657 34.7582 30.8378C34.5011 30.8682 34.3475 30.9697 34.192 31.0725C34.0636 31.1574 33.9339 31.2431 33.7434 31.2904C33.1663 31.4335 32.7853 31.4786 32.2212 31.2904C31.5686 31.0726 31.28 30.7117 30.8682 30.1589C30.4007 29.5312 30.1409 29.0755 30.1353 28.2919C30.1294 27.4651 30.9814 26.394 31.1258 26.2184C31.1398 26.2013 31.1529 26.1846 31.166 26.1668C31.1944 26.128 31.2486 26.0552 31.2905 26.0055C31.7645 25.4434 32.2852 25.1999 32.9541 25.1237C33.5547 25.0553 33.9429 25.2348 34.4313 25.4608C34.5515 25.5163 34.6777 25.5747 34.8146 25.6329C35.2456 25.816 35.6385 26.2092 35.9732 26.544C36.311 26.8821 36.5895 27.1607 36.7877 27.1038C37.1345 27.0044 37.1708 26.5944 37.2069 26.1878C37.2245 25.99 37.242 25.7929 37.2951 25.6329C37.394 25.3353 37.4691 24.9824 37.5518 24.5945L37.5518 24.5942M36.1673 35.4769L39.1441 35.7024C39.1517 35.703 39.1582 35.7034 39.1659 35.7037C39.3084 35.7102 40.8913 35.7791 41.918 35.7032C42.8713 35.6328 43.4073 35.5635 44.3422 35.3638C45.1339 35.1947 46.3327 34.8106 46.3708 34.7983C46.372 34.798 46.3723 34.7979 46.3735 34.7975L49.2331 33.8928M36.1673 35.4769C36.122 35.9769 36.0777 36.3968 36.0614 36.5482C36.057 36.5885 36.0486 36.6274 36.0344 36.6653C35.9557 36.8752 35.6548 37.6049 35.2092 37.7965C34.6768 38.0254 34.1529 37.9812 33.7434 37.5702C33.7315 37.5583 33.7167 37.5431 33.6991 37.5251C33.4657 37.2857 32.7446 36.5464 31.9957 36.3821C31.2807 36.2253 30.8682 36.269 30.1353 36.6084C29.4024 36.9479 28.7765 37.2448 28.3313 38.0228C27.836 38.8884 27.8855 39.5954 28.1058 40.5687C28.3 41.4267 28.5304 41.9545 29.1769 42.5488C29.7214 43.0494 30.13 43.3787 30.8682 43.3975C31.3104 43.4087 31.5908 43.2012 31.8881 42.9812C32.1137 42.8142 32.3491 42.64 32.6723 42.5488C33.3558 42.356 33.7663 42.3225 34.4763 42.3225C34.6832 42.3225 34.8957 42.2876 35.1009 42.254C35.5999 42.172 36.0553 42.0973 36.2803 42.5488C36.5622 43.1146 36.8256 44.4609 37.0132 45.7171C37.0445 45.926 37.0797 46.1417 37.115 46.3574L37.115 46.3576C37.1451 46.5416 37.1752 46.7255 37.2028 46.9051M49.2331 33.8928C49.2373 34.056 49.2418 34.2252 49.2469 34.402C49.2512 34.5519 49.2552 34.6943 49.259 34.831M49.2331 33.8928C49.1952 32.3849 49.1988 31.397 49.2469 29.7629C49.2853 28.4582 49.3269 27.7271 49.4161 26.4249C49.4228 26.327 49.4284 26.2329 49.4333 26.142M37.2028 46.9051C37.3156 47.6413 37.3858 48.3049 37.2387 48.6024C36.8706 49.3475 36.0335 49.3108 35.2092 49.2247C34.8978 49.1922 34.6848 49.0533 34.4712 48.9139C34.2608 48.7767 34.0497 48.639 33.7434 48.6024C32.8785 48.4991 32.2316 48.6218 31.6011 49.2247C31.199 49.6093 31.0885 49.9732 30.9399 50.4629L30.9398 50.4632C30.9172 50.5376 30.8937 50.6149 30.8682 50.6957C30.8568 50.7317 30.8458 50.7664 30.835 50.8001L30.8349 50.8006C30.7174 51.1689 30.6391 51.4145 30.6427 51.8272C30.6493 52.5822 30.8567 53.042 31.3192 53.6376C31.7252 54.1604 32.0421 54.4574 32.6723 54.656C33.2394 54.8346 33.6299 54.8427 34.1944 54.656C34.533 54.5439 34.7459 54.3422 34.9701 54.1298C35.1503 53.9591 35.3378 53.7814 35.6038 53.6376C36.1257 53.3555 36.3763 53.2329 37.0132 53.0718C37.2029 53.0239 37.3859 52.9651 37.5655 52.9073L37.5656 52.9073C38.0969 52.7365 38.5984 52.5753 39.1555 52.7324C39.9182 52.9474 40.0272 53.6234 40.1488 54.3777C40.2057 54.7304 40.2653 55.1002 40.3958 55.448C40.4855 55.6871 40.605 55.8935 40.7181 56.089M37.2028 46.9051C37.2028 46.9051 39.2119 46.9994 40.1703 46.9051C40.5545 46.8673 40.9246 46.8499 41.3048 46.8319L41.3052 46.8319C41.8734 46.8051 42.4642 46.7772 43.1583 46.6788C44.1018 46.5452 44.8197 46.3745 45.5683 46.1965C45.6847 46.1689 45.8019 46.141 45.9207 46.1131C46.5113 45.9744 46.9746 45.7326 47.4985 45.4592L47.4988 45.4591L47.4991 45.4589C47.7585 45.3235 48.0329 45.1804 48.3449 45.0382C49.1534 44.6697 50.4067 44.0764 50.4067 44.0764M50.4067 44.0764C50.4784 44.4051 50.5594 44.7544 50.6563 45.1513C50.8799 46.0665 51.0826 46.7174 51.3054 47.433C51.4364 47.8536 51.5743 48.2966 51.7275 48.8287C51.8432 49.2305 51.9455 49.5809 52.0415 49.9098M50.4067 44.0764C50.2216 43.2271 50.0987 42.5151 49.9234 41.4739C49.6828 40.0444 49.5486 39.2402 49.4161 37.7965C49.3086 36.6261 49.2887 35.9071 49.2591 34.8364M40.74 56.1269C40.9672 56.5201 41.1589 56.8744 41.016 57.3716C40.7705 58.2255 39.9986 58.4007 39.1555 58.6728C38.2753 58.9569 37.6807 58.432 36.7877 58.6728C36.0173 58.8806 35.4727 59.0021 34.9837 59.6346C34.535 60.2148 34.4123 60.7134 34.4763 61.445C34.5487 62.2723 35.134 63.0291 35.4911 63.312C35.8481 63.5949 36.1955 64.0442 36.7877 64.2172C37.5114 64.4285 38.1408 64.2737 38.5918 63.9343C39.0048 63.6235 40.1741 62.4113 40.3683 62.2091C40.3686 62.2088 40.369 62.2085 40.3693 62.2082C40.3878 62.189 40.4069 62.1718 40.4286 62.1563C40.5778 62.0494 41.2095 61.6341 41.7489 61.841C42.4472 62.1089 42.2279 62.5752 42.369 63.312C42.5284 64.1441 42.9138 65.8579 42.9138 65.8579M40.74 56.1269H43.1583M40.74 56.1269C40.7328 56.1143 40.7255 56.1017 40.7181 56.089M40.74 56.1269L40.7181 56.089M43.1583 56.1269C43.9287 56.1269 45.6388 56.1269 45.6388 56.1269M43.1583 56.1269H45.6388M45.6388 56.1269C45.6388 56.1269 46.8603 55.8629 47.3865 55.7309C47.8612 55.6118 49.1313 55.1089 49.3752 55.0117C49.4027 55.0008 49.4291 54.9884 49.4552 54.9745L51.1074 54.0902L52.9234 53.0718M52.9234 53.0718C53.2172 54.1774 53.4194 54.9726 53.7007 56.2401C54.0517 57.8219 54.3041 58.7037 54.4899 60.3135C54.5966 61.2376 54.6202 61.7602 54.6591 62.6896C54.6657 62.8482 54.6707 62.9984 54.6745 63.1422M52.9234 53.0718C52.8668 52.8589 52.8069 52.6345 52.7423 52.3929C52.4765 51.3991 52.2781 50.7199 52.0418 49.9107M42.9138 65.8579C42.9138 65.8579 43.1098 67.6112 42.7073 68.0077C42.2571 68.4512 41.911 68.6508 41.2978 68.7998C40.7275 68.9383 40.2919 68.6791 39.8531 68.418C39.4371 68.1705 39.0182 67.9213 38.479 68.0077C37.7593 68.123 37.2944 68.2739 36.7877 68.7998C36.2733 69.3337 36.1176 69.8136 36.0548 70.5536C35.9874 71.3492 36.1539 71.8485 36.5622 72.5337C36.9138 73.1237 37.1641 73.5293 37.8025 73.7784C38.3771 74.0026 38.7823 73.9256 39.381 73.7784C39.7356 73.6912 39.9645 73.5301 40.2035 73.3619C40.3902 73.2305 40.583 73.0947 40.8468 72.9863C41.0293 72.9114 41.2704 72.7221 41.5079 72.5357C42.0174 72.1357 42.51 71.7491 42.369 72.5337C42.3622 72.5715 42.3555 72.6092 42.349 72.6469M42.9138 65.8579L45.5711 65.9705C45.5787 65.9708 45.5852 65.971 45.5928 65.9711C45.7306 65.9728 47.2184 65.9871 48.1758 65.8579M48.1758 65.8579L48.1774 65.8576M48.1758 65.8579C48.1763 65.8578 48.1769 65.8577 48.1774 65.8576M54.6745 63.1422L52.4176 64.3794C52.4086 64.3844 52.3997 64.3895 52.3907 64.3948C52.262 64.4712 51.2245 65.0819 50.4872 65.3487C49.6184 65.663 49.0923 65.7341 48.1774 65.8576M42.349 72.6469C42.259 73.1623 42.1881 73.6695 42.1134 74.2035C42.0273 74.819 41.9362 75.4703 41.8052 76.2111C41.6998 76.8074 41.5678 77.2869 41.4417 77.7452C41.2438 78.464 41.0603 79.1308 41.016 80.1148C40.9555 81.4587 41.0663 82.3192 41.2371 83.6455M42.349 72.6469L42.6354 72.8057L44.7648 73.7656C44.7837 73.7741 44.8015 73.7829 44.8197 73.7927C45.0138 73.897 46.2303 74.5395 47.1046 74.7402C47.9441 74.9328 48.4435 74.9595 49.3033 74.9099C50.1717 74.8598 51.4732 74.4822 51.5544 74.4585C51.5571 74.4577 51.5597 74.4569 51.5624 74.4562L54.3488 73.6652M52.0418 49.9107L52.0415 49.9098M52.0418 49.9107C52.0417 49.9104 52.0416 49.9101 52.0415 49.9098M49.2591 34.8364L49.259 34.831M49.2591 34.8364C49.2591 34.8346 49.259 34.8328 49.259 34.831M37.5518 24.5942L37.5519 24.5939C37.5547 24.581 37.5574 24.568 37.5602 24.5549M37.5518 24.5942C37.5546 24.5812 37.5574 24.568 37.5602 24.5549" stroke="black" stroke-width="1.45558"/>
<path d="M120.884 75.265V77.3319H124.164V78.3994H120.884V81H119.623V74.2073H124.582V75.265H120.884ZM127.742 74.2073H129.004V81H127.742V74.2073ZM138.061 79.9326V81H132.268V80.1558L136.266 75.2747H132.335V74.2073H137.935V75.0515L133.937 79.9326H138.061ZM142.215 81.097C141.781 81.097 141.38 81.0129 141.012 80.8447C140.649 80.6701 140.352 80.4275 140.119 80.1169L140.837 79.2533C141.212 79.7708 141.662 80.0296 142.186 80.0296C142.891 80.0296 143.243 79.6123 143.243 78.7778V75.265H140.827V74.2073H144.505V78.7099C144.505 79.5056 144.311 80.104 143.923 80.5051C143.535 80.8997 142.965 81.097 142.215 81.097ZM151.388 81.097C150.696 81.097 150.072 80.9482 149.515 80.6507C148.959 80.3466 148.522 79.9293 148.205 79.3989C147.888 78.8619 147.73 78.2635 147.73 77.6036C147.73 76.9438 147.888 76.3486 148.205 75.8181C148.522 75.2812 148.959 74.8639 149.515 74.5663C150.072 74.2623 150.696 74.1103 151.388 74.1103C152.081 74.1103 152.705 74.2623 153.261 74.5663C153.818 74.8639 154.254 75.2779 154.571 75.8084C154.888 76.3389 155.047 76.9373 155.047 77.6036C155.047 78.27 154.888 78.8684 154.571 79.3989C154.254 79.9293 153.818 80.3466 153.261 80.6507C152.705 80.9482 152.081 81.097 151.388 81.097ZM151.388 79.9908C151.841 79.9908 152.249 79.8905 152.611 79.69C152.973 79.483 153.258 79.1983 153.465 78.836C153.672 78.4673 153.775 78.0565 153.775 77.6036C153.775 77.1508 153.672 76.7432 153.465 76.381C153.258 76.0122 152.973 75.7276 152.611 75.527C152.249 75.32 151.841 75.2165 151.388 75.2165C150.935 75.2165 150.528 75.32 150.166 75.527C149.803 75.7276 149.519 76.0122 149.312 76.381C149.105 76.7432 149.001 77.1508 149.001 77.6036C149.001 78.0565 149.105 78.4673 149.312 78.836C149.519 79.1983 149.803 79.483 150.166 79.69C150.528 79.8905 150.935 79.9908 151.388 79.9908ZM159.608 75.2747H157.357V74.2073H163.121V75.2747H160.869V81H159.608V75.2747ZM171.103 79.9423V81H166.008V74.2073H170.967V75.265H167.27V77.0311H170.55V78.0694H167.27V79.9423H171.103ZM178.894 81L177.506 79.0107C177.448 79.0172 177.361 79.0204 177.244 79.0204H175.711V81H174.45V74.2073H177.244C177.833 74.2073 178.344 74.3043 178.778 74.4984C179.218 74.6925 179.554 74.9707 179.787 75.3329C180.02 75.6952 180.136 76.1254 180.136 76.6236C180.136 77.1346 180.01 77.5745 179.758 77.9433C179.512 78.312 179.156 78.587 178.69 78.7681L180.253 81H178.894ZM178.865 76.6236C178.865 76.1901 178.723 75.8569 178.438 75.6241C178.153 75.3912 177.736 75.2747 177.186 75.2747H175.711V77.9821H177.186C177.736 77.9821 178.153 77.8656 178.438 77.6328C178.723 77.3934 178.865 77.057 178.865 76.6236ZM187.894 79.428H184.498L183.828 81H182.528L185.584 74.2073H186.826L189.893 81H188.573L187.894 79.428ZM187.477 78.4382L186.196 75.4688L184.925 78.4382H187.477ZM195.492 74.2073C196.081 74.2073 196.592 74.3043 197.025 74.4984C197.465 74.6925 197.802 74.9707 198.035 75.3329C198.268 75.6952 198.384 76.1254 198.384 76.6236C198.384 77.1152 198.268 77.5454 198.035 77.9142C197.802 78.2764 197.465 78.5546 197.025 78.7487C196.592 78.9428 196.081 79.0398 195.492 79.0398H193.959V81H192.698V74.2073H195.492ZM195.434 77.9724C195.984 77.9724 196.401 77.8559 196.686 77.6231C196.97 77.3902 197.113 77.057 197.113 76.6236C197.113 76.1901 196.97 75.8569 196.686 75.6241C196.401 75.3912 195.984 75.2747 195.434 75.2747H193.959V77.9724H195.434ZM201.585 74.2073H202.846V81H201.585V74.2073ZM211.03 79.428H207.633L206.964 81H205.663L208.72 74.2073H209.962L213.029 81H211.709L211.03 79.428ZM210.612 78.4382L209.332 75.4688L208.06 78.4382H210.612Z" fill="black"/>
</svg>
